<svg version="1.1" viewBox="0 0 180 180" xmlns="http://www.w3.org/2000/svg" xmlns:xlink="http://www.w3.org/1999/xlink">
 <defs>
  <linearGradient id="linearGradient48" x1="250.412" x2="464.684" y1="-93.9044" y2="68.1988" gradientTransform="matrix(-.782609 0 0 .782609 622.262 17.4345)" gradientUnits="userSpaceOnUse">
   <stop stop-color="#76b3e1" offset="0"/>
   <stop stop-color="#4377bb" offset=".49485"/>
   <stop stop-color="#1f3b77" offset="1"/>
  </linearGradient>
 </defs>
 <g transform="translate(-254.684 81.8013)">
  <path d="m344.684-54.41a86.087 62.6087 0 0 1 86.087 62.6085 86.087 62.6087 0 0 1-86.087 62.6089 86.087 62.6087 0 0 1-86.087-62.6089 86.087 62.6087 0 0 1 86.087-62.6085zm19.1984 20.4343c-2.54482-0.149541-5.90463 0.335942-6.89624 1.07132-6.475 2.13412-11.1889 7.95848-17.8505 9.42753-13.3996 1.6079-27.4486 2.11481-39.5054 8.89167-7.47383 4.07078-15.3283 8.49898-20.4008 15.5206-3.07956 5.24009-5.69735 11.7334-3.22245 17.7296-0.36873 4.37871-8.90636 8.87005-4.10086 12.5242 2.14479 1.47389 5.1207 0.73666 6.96783-0.930985 9.31665-6.20106 20.1356-10.1117 31.0938-12.066 3.06059 3.8372 4.78724 9.28794 9.99737 10.862 2.29974 1.38407 10.1015 1.31892 5.15722-1.80939-3.3293-1.88756-6.53969-12.0001-0.19453-6.38626 5.20827 2.36625 11.8776 5.34349 17.2531 2.05488-2.51956-1.19662-10.7455-4.68771-8.05451-7.21008 12.9956-1.61698 26.7131-5.37917 39.4184-0.237397 6.34025 1.4854 12.1777 4.7811 16.0277 10.151 5.31968 5.41565-1.96027 11.8726-0.93058 18.0418-0.38198 2.10675 4.75669 8.57624 5.28057 6.23946-0.79732-6.49361 8.60654-9.91706 6.38667-16.6251-0.26547-1.68714 5.37284 1.48415 7.29743-1.21853 3.11847-2.50846 8.92674-4.38924 11.3182-3.93869-3.40257-7.74049-12.3146-6.40639-18.8543-4.44341-4.91478-2.5893-4.62775-11.8051-8.75659-16.3505-5.90807-10.6901-15.3369-19.1705-26.345-24.3467-5.06926-3.78757-5.24845-11.57 0.91804-14.2123 2.26963-1.80479 0.5401-2.58922-2.00474-2.73876z" fill="url(#linearGradient48)" fill-rule="evenodd" stroke-width=".264584"/>
 </g>
</svg>
